<svg width="20" height="20" viewBox="0 0 20 20" fill="none" xmlns="http://www.w3.org/2000/svg">
<path d="M3.25 15.25V5.275C3.24995 5.12104 3.29729 4.9708 3.38558 4.84468C3.47386 4.71855 3.59883 4.62265 3.7435 4.57L10.9967 1.933C11.0534 1.91238 11.1142 1.90572 11.174 1.9136C11.2338 1.92147 11.2908 1.94365 11.3401 1.97824C11.3895 2.01283 11.4298 2.05882 11.4577 2.11231C11.4855 2.16579 11.5 2.2252 11.5 2.2855V6.00025L16.237 7.579C16.3864 7.62876 16.5164 7.72429 16.6084 7.85203C16.7005 7.97978 16.75 8.13327 16.75 8.29075V15.25H18.25V16.75H1.75V15.25H3.25ZM4.75 15.25H10V3.89125L4.75 5.80075V15.25ZM15.25 15.25V8.8315L11.5 7.58125V15.25H15.25Z" fill="white"/>
</svg>
