<svg width="20" height="20" viewBox="0 0 20 20" fill="none" xmlns="http://www.w3.org/2000/svg">
<path d="M6.25 8.50001H16C16.1989 8.50001 16.3897 8.57902 16.5303 8.71968C16.671 8.86033 16.75 9.05109 16.75 9.25001V16.75C16.75 16.9489 16.671 17.1397 16.5303 17.2803C16.3897 17.421 16.1989 17.5 16 17.5H4C3.80109 17.5 3.61032 17.421 3.46967 17.2803C3.32902 17.1397 3.25 16.9489 3.25 16.75V9.25001C3.25 9.05109 3.32902 8.86033 3.46967 8.71968C3.61032 8.57902 3.80109 8.50001 4 8.50001H4.75V7.75001C4.74957 6.56703 5.14869 5.41859 5.88264 4.49083C6.6166 3.56308 7.64238 2.91039 8.7937 2.63858C9.94502 2.36676 11.1544 2.49176 12.2258 2.99329C13.2972 3.49482 14.1678 4.3435 14.6965 5.40176L13.3547 6.07226C12.9771 5.31627 12.3552 4.70999 11.5899 4.35172C10.8245 3.99344 9.9606 3.90418 9.13816 4.09839C8.31572 4.2926 7.583 4.75891 7.05877 5.42171C6.53454 6.08451 6.24955 6.90495 6.25 7.75001V8.50001ZM4.75 10V16H15.25V10H4.75ZM8.5 12.25H11.5V13.75H8.5V12.25Z" fill="white"/>
</svg>
