<svg width="20" height="20" viewBox="0 0 20 20" fill="none" xmlns="http://www.w3.org/2000/svg">
<path d="M7.44625 10.609C7.35115 10.2088 7.35115 9.79193 7.44625 9.39175L6.70225 8.962L7.45225 7.663L8.19625 8.09275C8.49487 7.80991 8.85585 7.60129 9.25 7.48375V6.625H10.75V7.48375C11.149 7.60225 11.509 7.81375 11.8038 8.09275L12.5478 7.663L13.2977 8.962L12.5538 9.39175C12.6487 9.79169 12.6487 10.2083 12.5538 10.6082L13.2977 11.038L12.5478 12.337L11.8038 11.9073C11.5051 12.1901 11.1442 12.3987 10.75 12.5162V13.375H9.25V12.5162C8.85585 12.3987 8.49487 12.1901 8.19625 11.9073L7.45225 12.337L6.70225 11.038L7.44625 10.609ZM10 11.125C10.2984 11.125 10.5845 11.0065 10.7955 10.7955C11.0065 10.5845 11.125 10.2984 11.125 10C11.125 9.70163 11.0065 9.41548 10.7955 9.2045C10.5845 8.99353 10.2984 8.875 10 8.875C9.70163 8.875 9.41548 8.99353 9.2045 9.2045C8.99353 9.41548 8.875 9.70163 8.875 10C8.875 10.2984 8.99353 10.5845 9.2045 10.7955C9.41548 11.0065 9.70163 11.125 10 11.125ZM12.25 4H4.75V16H15.25V7H12.25V4ZM3.25 3.244C3.25 2.833 3.58525 2.5 3.99925 2.5H13L16.75 6.25V16.7448C16.7507 16.8432 16.732 16.9409 16.6949 17.0322C16.6579 17.1234 16.6032 17.2065 16.534 17.2766C16.4649 17.3468 16.3826 17.4026 16.2919 17.4409C16.2011 17.4792 16.1037 17.4993 16.0052 17.5H3.99475C3.79778 17.4986 3.60926 17.4198 3.46991 17.2806C3.33056 17.1414 3.25157 16.953 3.25 16.756V3.244Z" fill="white"/>
</svg>
