<svg width="20" height="20" viewBox="0 0 20 20" fill="none" xmlns="http://www.w3.org/2000/svg">
<path d="M3.25 3.25H16.75C16.9489 3.25 17.1397 3.32902 17.2803 3.46967C17.421 3.61032 17.5 3.80109 17.5 4V16C17.5 16.1989 17.421 16.3897 17.2803 16.5303C17.1397 16.671 16.9489 16.75 16.75 16.75H3.25C3.05109 16.75 2.86032 16.671 2.71967 16.5303C2.57902 16.3897 2.5 16.1989 2.5 16V4C2.5 3.80109 2.57902 3.61032 2.71967 3.46967C2.86032 3.32902 3.05109 3.25 3.25 3.25ZM16 11.5H13.438C13.1462 12.1691 12.6655 12.7385 12.0548 13.1384C11.4441 13.5383 10.73 13.7513 10 13.7513C9.27003 13.7513 8.55592 13.5383 7.94523 13.1384C7.33454 12.7385 6.85382 12.1691 6.562 11.5H4V15.25H16V11.5ZM16 10V4.75H4V10H7.75C7.75 10.5967 7.98705 11.169 8.40901 11.591C8.83097 12.0129 9.40326 12.25 10 12.25C10.5967 12.25 11.169 12.0129 11.591 11.591C12.0129 11.169 12.25 10.5967 12.25 10H16Z" fill="white"/>
</svg>
