<svg width="20" height="20" viewBox="0 0 20 20" fill="none" xmlns="http://www.w3.org/2000/svg">
<path d="M4.99776 3.45325C5.49804 3.27474 6.0407 3.25219 6.55406 3.3886C7.06742 3.52501 7.52732 3.81394 7.873 4.21724C8.21868 4.62054 8.43389 5.11921 8.49017 5.6474C8.54646 6.17558 8.44119 6.70841 8.18826 7.1755L16.22 15.208L15.1595 16.2685L7.12701 8.236C6.65982 8.48792 6.12726 8.59239 5.59951 8.53562C5.07177 8.47886 4.5736 8.26353 4.17067 7.918C3.76774 7.57248 3.47895 7.11299 3.34236 6.60008C3.20577 6.08716 3.22779 5.5449 3.40551 5.04475L5.08326 6.7225C5.18704 6.82995 5.31118 6.91565 5.44843 6.97461C5.58569 7.03357 5.73331 7.06461 5.88269 7.0659C6.03207 7.0672 6.1802 7.03874 6.31846 6.98217C6.45672 6.92561 6.58233 6.84207 6.68796 6.73644C6.79359 6.63081 6.87712 6.5052 6.93369 6.36695C6.99026 6.22869 7.01872 6.08055 7.01742 5.93117C7.01612 5.78179 6.98509 5.63417 6.92613 5.49692C6.86717 5.35966 6.78146 5.23552 6.67401 5.13175L4.99701 3.4525L4.99776 3.45325ZM12.773 4.86625L15.1595 3.54025L16.22 4.60075L14.894 6.98725L13.568 7.25275L11.978 8.8435L10.9168 7.783L12.5075 6.19225L12.773 4.86625ZM7.73451 10.9652L8.79501 12.0257L4.81776 16.003C4.68254 16.1386 4.50056 16.2173 4.30914 16.2231C4.11771 16.2288 3.93135 16.1611 3.78825 16.0338C3.64515 15.9066 3.55616 15.7294 3.53952 15.5386C3.52288 15.3478 3.57986 15.1579 3.69876 15.0077L3.75726 14.9425L7.73451 10.9652Z" fill="white"/>
</svg>
