<svg width="20" height="20" viewBox="0 0 20 20" fill="none" xmlns="http://www.w3.org/2000/svg">
<path d="M10 1.75L16.1627 3.1195C16.5055 3.196 16.75 3.49975 16.75 3.8515V11.3417C16.75 12.8462 15.9977 14.2517 14.746 15.0858L10 18.25L5.254 15.0858C4.0015 14.251 3.25 12.8463 3.25 11.3425V3.8515C3.25 3.49975 3.4945 3.196 3.83725 3.1195L10 1.75ZM10 3.28675L4.75 4.453V11.3417C4.75 12.3445 5.251 13.2812 6.08575 13.8378L10 16.4478L13.9142 13.8378C14.749 13.2812 15.25 12.3453 15.25 11.3425V4.453L10 3.2875V3.28675ZM13.339 7.1665L14.4003 8.227L9.62725 13L6.445 9.81775L7.5055 8.75725L9.6265 10.8783L13.339 7.16575V7.1665Z" fill="white"/>
</svg>
