<svg width="20" height="20" viewBox="0 0 20 20" fill="none" xmlns="http://www.w3.org/2000/svg">
<path d="M3.25 3.25H16.75C16.9489 3.25 17.1397 3.32902 17.2803 3.46967C17.421 3.61032 17.5 3.80109 17.5 4V16C17.5 16.1989 17.421 16.3897 17.2803 16.5303C17.1397 16.671 16.9489 16.75 16.75 16.75H3.25C3.05109 16.75 2.86032 16.671 2.71967 16.5303C2.57902 16.3897 2.5 16.1989 2.5 16V4C2.5 3.80109 2.57902 3.61032 2.71967 3.46967C2.86032 3.32902 3.05109 3.25 3.25 3.25ZM4 4.75V15.25H16V4.75H4ZM13.675 10.75C13.4868 11.6585 12.9686 12.4651 12.2206 13.0139C11.4725 13.5627 10.5476 13.8148 9.62446 13.7216C8.70136 13.6283 7.84556 13.1963 7.22234 12.509C6.59912 11.8217 6.25271 10.9278 6.25 10C6.25011 9.13559 6.54872 8.29773 7.09536 7.6281C7.64199 6.95847 8.40311 6.49816 9.25 6.325V10.75H13.675ZM13.675 9.25H10.75V6.325C11.4704 6.47252 12.1317 6.82836 12.6517 7.34835C13.1716 7.86833 13.5275 8.52958 13.675 9.25Z" fill="white"/>
</svg>
