<svg width="20" height="20" viewBox="0 0 20 20" fill="none" xmlns="http://www.w3.org/2000/svg">
<path d="M3.50498 13.75C3.18794 13.2017 2.94148 12.6156 2.77148 12.0055C3.14146 11.8173 3.45218 11.5305 3.66926 11.1767C3.88633 10.8229 4.00131 10.4159 4.00146 10.0008C4.00162 9.58575 3.88695 9.17872 3.67014 8.82475C3.45332 8.47079 3.14282 8.18371 2.77298 7.99525C3.11201 6.76937 3.75753 5.64997 4.64873 4.7425C4.9968 4.9688 5.4007 5.09438 5.81572 5.10534C6.23074 5.1163 6.6407 5.01223 7.00023 4.80463C7.35977 4.59703 7.65485 4.294 7.85283 3.92908C8.05081 3.56417 8.14396 3.15159 8.12198 2.737C9.35357 2.41872 10.6459 2.41924 11.8772 2.7385C11.8554 3.15308 11.9488 3.5656 12.1469 3.93041C12.3451 4.29522 12.6403 4.59811 12.9999 4.80555C13.3595 5.01299 13.7694 5.11689 14.1844 5.10577C14.5994 5.09464 15.0033 4.96892 15.3512 4.7425C15.7855 5.185 16.171 5.68825 16.495 6.25C16.8197 6.81175 17.0627 7.3975 17.2285 7.9945C16.8585 8.18268 16.5478 8.46953 16.3307 8.82333C16.1136 9.17713 15.9987 9.58408 15.9985 9.99917C15.9984 10.4143 16.113 10.8213 16.3298 11.1753C16.5466 11.5292 16.8571 11.8163 17.227 12.0048C16.888 13.2306 16.2424 14.35 15.3512 15.2575C15.0032 15.0312 14.5993 14.9056 14.1843 14.8947C13.7692 14.8837 13.3593 14.9878 12.9997 15.1954C12.6402 15.403 12.3451 15.706 12.1471 16.0709C11.9492 16.4358 11.856 16.8484 11.878 17.263C10.6464 17.5813 9.35406 17.5808 8.12273 17.2615C8.14452 16.8469 8.05118 16.4344 7.85305 16.0696C7.65492 15.7048 7.35972 15.4019 7.00011 15.1945C6.64051 14.987 6.23053 14.8831 5.81553 14.8942C5.40053 14.9054 4.99671 15.0311 4.64873 15.2575C4.20548 14.8052 3.82118 14.2987 3.50498 13.75ZM7.74998 13.897C8.5492 14.358 9.15012 15.0978 9.43748 15.9745C9.81173 16.0098 10.1875 16.0105 10.5617 15.9753C10.8493 15.0984 11.4505 14.3586 12.25 13.8978C13.0489 13.4355 13.9904 13.2846 14.8937 13.474C15.1112 13.168 15.2987 12.8418 15.4547 12.5005C14.8393 11.8131 14.4993 10.9227 14.5 10C14.5 9.055 14.8525 8.17226 15.4547 7.49951C15.2976 7.15837 15.1093 6.83248 14.8922 6.526C13.9894 6.71524 13.0486 6.56461 12.25 6.103C11.4508 5.64203 10.8499 4.90224 10.5625 4.0255C10.1882 3.99025 9.81248 3.9895 9.43823 4.02475C9.15068 4.90161 8.54949 5.64142 7.74998 6.10225C6.95107 6.56449 6.00959 6.71539 5.10623 6.526C4.88916 6.83222 4.70133 7.15815 4.54523 7.49951C5.16066 8.18692 5.50065 9.07735 5.49998 10C5.49998 10.945 5.14748 11.8278 4.54523 12.5005C4.70234 12.8416 4.89064 13.1675 5.10773 13.474C6.01052 13.2848 6.95139 13.4354 7.74998 13.897ZM9.99998 12.25C9.40325 12.25 8.83095 12.013 8.40899 11.591C7.98704 11.169 7.74998 10.5967 7.74998 10C7.74998 9.40327 7.98704 8.83097 8.40899 8.40901C8.83095 7.98706 9.40325 7.75 9.99998 7.75C10.5967 7.75 11.169 7.98706 11.591 8.40901C12.0129 8.83097 12.25 9.40327 12.25 10C12.25 10.5967 12.0129 11.169 11.591 11.591C11.169 12.013 10.5967 12.25 9.99998 12.25ZM9.99998 10.75C10.1989 10.75 10.3897 10.671 10.5303 10.5303C10.671 10.3897 10.75 10.1989 10.75 10C10.75 9.80109 10.671 9.61033 10.5303 9.46967C10.3897 9.32902 10.1989 9.25 9.99998 9.25C9.80107 9.25 9.61031 9.32902 9.46965 9.46967C9.329 9.61033 9.24998 9.80109 9.24998 10C9.24998 10.1989 9.329 10.3897 9.46965 10.5303C9.61031 10.671 9.80107 10.75 9.99998 10.75Z" fill="white"/>
</svg>
