<svg width="20" height="20" viewBox="0 0 20 20" fill="none" xmlns="http://www.w3.org/2000/svg">
<path d="M10 2.5C14.1423 2.5 17.5 5.85775 17.5 10C17.5 11.602 16.9975 13.087 16.1417 14.3057L13.75 10H16C15.9999 8.61715 15.5221 7.2768 14.6475 6.20567C13.7729 5.13454 12.5551 4.39839 11.2002 4.12177C9.84536 3.84514 8.4365 4.04501 7.21201 4.68757C5.98752 5.33013 5.02257 6.37593 4.48039 7.64806C3.93822 8.92019 3.8521 10.3405 4.23662 11.6689C4.62113 12.9972 5.45267 14.1519 6.59056 14.9377C7.72845 15.7235 9.10284 16.0921 10.4812 15.9812C11.8596 15.8702 13.1574 15.2866 14.155 14.329L14.9035 15.6752C13.5424 16.8547 11.801 17.5027 10 17.5C5.85775 17.5 2.5 14.1422 2.5 10C2.5 5.85775 5.85775 2.5 10 2.5ZM10 6.25C10.5967 6.25 11.169 6.48705 11.591 6.90901C12.0129 7.33097 12.25 7.90326 12.25 8.5V9.25H13V13H7V9.25H7.75V8.5C7.75 7.90326 7.98705 7.33097 8.40901 6.90901C8.83097 6.48705 9.40326 6.25 10 6.25ZM11.5 10.75H8.5V11.5H11.5V10.75ZM10 7.75C9.8163 7.75002 9.639 7.81747 9.50172 7.93954C9.36444 8.06161 9.27674 8.22981 9.25525 8.41225L9.25 8.5V9.25H10.75V8.5C10.75 8.3163 10.6825 8.139 10.5605 8.00172C10.4384 7.86444 10.2702 7.77674 10.0877 7.75525L10 7.75Z" fill="white"/>
</svg>
